# xmcd
#
# Track frame offsets:
#	150
#	12507
#	33766
#	70759
#	105174
#	138425
#	161885
#
# Disc length: 2439 seconds
#
# Revision: 1
# Processed by: cddbd v1.5.2PL0 Copyright (c) Steve Scherf et al.
# Submitted via: audiograbber 1.83.01
#
DISCID=51098507
DTITLE=Kid Cudi Vs Crookers - Data Records Promo
DYEAR=2008
DGENRE=Drum and Bass
TTITLE0=Day 'N' Nite (Radio Edit)
TTITLE1=Day 'N' Nite (Club Mix)
TTITLE2=Day 'N' Nite (Bimbo Jones Remix)
TTITLE3=Day 'N' Nite (Mobin Masters Remix)
TTITLE4=Day 'N' Nite (Jokers Of The Scene Remix)
TTITLE5=Day 'N' Nite (Agent X Remix)
TTITLE6=Day 'N' Nite (Crookers 'At Nite' Dub)
EXTD=
EXTT0=
EXTT1=
EXTT2=
EXTT3=
EXTT4=
EXTT5=
EXTT6=
PLAYORDER=
